<svg xmlns="http://www.w3.org/2000/svg" xmlns:xlink="http://www.w3.org/1999/xlink" id="processonSvg1000" viewBox="224.0 316.0 577.0 266.0" width="577.0" height="266.0"><defs id="ProcessOnDefs1001"><marker id="ProcessOnMarker1026" markerUnits="userSpaceOnUse" orient="auto" markerWidth="16.23606797749979" markerHeight="10.550836550532098" viewBox="-1.0 -1.3763819204711736 16.23606797749979 10.550836550532098" refX="-1.0" refY="3.8990363547948754"><path id="ProcessOnPath1027" d="M12.0 3.8990363547948754L0.0 7.798072709589751V0.0Z" stroke="#323232" stroke-width="2.0" fill="#323232" transform="matrix(1.0,0.0,0.0,1.0,0.0,0.0)"/></marker><marker id="ProcessOnMarker1035" markerUnits="userSpaceOnUse" orient="auto" markerWidth="16.23606797749979" markerHeight="10.550836550532098" viewBox="-1.0 -1.3763819204711736 16.23606797749979 10.550836550532098" refX="-1.0" refY="3.8990363547948754"><path id="ProcessOnPath1036" d="M12.0 3.8990363547948754L0.0 7.798072709589751V0.0Z" stroke="#323232" stroke-width="2.0" fill="#323232" transform="matrix(1.0,0.0,0.0,1.0,0.0,0.0)"/></marker><marker id="ProcessOnMarker1042" markerUnits="userSpaceOnUse" orient="auto" markerWidth="16.23606797749979" markerHeight="10.550836550532098" viewBox="-1.0 -1.3763819204711736 16.23606797749979 10.550836550532098" refX="-1.0" refY="3.8990363547948754"><path id="ProcessOnPath1043" d="M12.0 3.8990363547948754L0.0 7.798072709589751V0.0Z" stroke="#323232" stroke-width="2.0" fill="#323232" transform="matrix(1.0,0.0,0.0,1.0,0.0,0.0)"/></marker><marker id="ProcessOnMarker1049" markerUnits="userSpaceOnUse" orient="auto" markerWidth="16.23606797749979" markerHeight="10.550836550532098" viewBox="-1.0 -1.3763819204711736 16.23606797749979 10.550836550532098" refX="-1.0" refY="3.8990363547948754"><path id="ProcessOnPath1050" d="M12.0 3.8990363547948754L0.0 7.798072709589751V0.0Z" stroke="#323232" stroke-width="2.0" fill="#323232" transform="matrix(1.0,0.0,0.0,1.0,0.0,0.0)"/></marker></defs><g id="ProcessOnG1002"><path id="ProcessOnPath1003" d="M224.0 316.0H801.0V582.0H224.0V316.0Z" fill="none"/><g id="ProcessOnG1004"><g id="ProcessOnG1005" transform="matrix(1.0,0.0,0.0,1.0,244.0,336.0)" opacity="1.0"><path id="ProcessOnPath1006" d="M41.0 30.0L41.0 226.0" stroke="#323232" stroke-width="2.0" stroke-dasharray="2.0 3.0" opacity="1.0" fill="none"/><path id="ProcessOnPath1007" d="M0.0 0.0L82.0 0.0L82.0 30.0L0.0 30.0Z" stroke="#323232" stroke-width="2.0" stroke-dasharray="none" opacity="1.0" fill="#ffffff"/><g id="ProcessOnG1008" transform="matrix(1.0,0.0,0.0,1.0,10.0,6.875)"><text id="ProcessOnText1009" fill="#000000" font-weight="normal" font-style="normal" text-decoration="none" font-family="微软雅黑" text-anchor="middle" font-size="13" x="30.0" y="13.325">用户接口</text></g></g><g id="ProcessOnG1010" transform="matrix(1.0,0.0,0.0,1.0,474.0,336.0)" opacity="1.0"><path id="ProcessOnPath1011" d="M41.5 30.0L41.5 226.0" stroke="#323232" stroke-width="2.0" stroke-dasharray="2.0 3.0" opacity="1.0" fill="none"/><path id="ProcessOnPath1012" d="M0.0 0.0L83.0 0.0L83.0 30.0L0.0 30.0Z" stroke="#323232" stroke-width="2.0" stroke-dasharray="none" opacity="1.0" fill="#ffffff"/><g id="ProcessOnG1013" transform="matrix(1.0,0.0,0.0,1.0,10.0,6.875)"><text id="ProcessOnText1014" fill="#000000" font-weight="normal" font-style="normal" text-decoration="none" font-family="微软雅黑" text-anchor="middle" font-size="13" x="30.5" y="13.325">服务器</text></g></g><g id="ProcessOnG1015" transform="matrix(1.0,0.0,0.0,1.0,705.0,336.0)" opacity="1.0"><path id="ProcessOnPath1016" d="M38.0 30.0L38.0 226.0" stroke="#323232" stroke-width="2.0" stroke-dasharray="2.0 3.0" opacity="1.0" fill="none"/><path id="ProcessOnPath1017" d="M0.0 0.0L76.0 0.0L76.0 30.0L0.0 30.0Z" stroke="#323232" stroke-width="2.0" stroke-dasharray="none" opacity="1.0" fill="#ffffff"/><g id="ProcessOnG1018" transform="matrix(1.0,0.0,0.0,1.0,10.0,6.875)"><text id="ProcessOnText1019" fill="#000000" font-weight="normal" font-style="normal" text-decoration="none" font-family="微软雅黑" text-anchor="middle" font-size="13" x="27.0" y="13.325">数据库</text></g></g><g id="ProcessOnG1020" transform="matrix(1.0,0.0,0.0,1.0,270.0,399.0)" opacity="1.0"><path id="ProcessOnPath1021" d="M0.0 4.0Q0.0 0.0 4.0 0.0L26.0 0.0Q30.0 0.0 30.0 4.0L30.0 96.0Q30.0 100.0 26.0 100.0L4.0 100.0Q0.0 100.0 0.0 96.0L0.0 4.0Z" stroke="#323232" stroke-width="2.0" stroke-dasharray="none" opacity="1.0" fill="#ffffff"/></g><g id="ProcessOnG1022" transform="matrix(1.0,0.0,0.0,1.0,500.5,399.0)" opacity="1.0"><path id="ProcessOnPath1023" d="M0.0 4.0Q0.0 0.0 4.0 0.0L26.0 0.0Q30.0 0.0 30.0 4.0L30.0 96.0Q30.0 100.0 26.0 100.0L4.0 100.0Q0.0 100.0 0.0 96.0L0.0 4.0Z" stroke="#323232" stroke-width="2.0" stroke-dasharray="none" opacity="1.0" fill="#ffffff"/></g><g id="ProcessOnG1024"><path id="ProcessOnPath1025" d="M299.0303844939756 406.34729635533387L400.0075816431713 406.34729635533387L400.0075816431713 408.3486229709906L485.7487108148672 408.3486229709906" stroke="#323232" stroke-width="2.0" stroke-dasharray="none" fill="none" marker-end="url(#ProcessOnMarker1026)"/><g id="ProcessOnG1028" transform="matrix(1.0,0.0,0.0,1.0,393.39021096224974,398.22229635533387)"><path id="ProcessOnPath1029" d="M0 0H117.0V16.25H0Z" fill="#fff" transform="matrix(1.0,0.0,0.0,1.0,-58.5,0.0)"/><text id="ProcessOnText1030" fill="#000000" font-weight="normal" font-style="normal" text-decoration="none" font-family="微软雅黑" text-anchor="middle" font-size="13" x="0.0" y="13.325">会话信息与请求权限</text></g></g><g id="ProcessOnG1031" transform="matrix(1.0,0.0,0.0,1.0,728.0,399.0)" opacity="1.0"><path id="ProcessOnPath1032" d="M0.0 4.0Q0.0 0.0 4.0 0.0L26.0 0.0Q30.0 0.0 30.0 4.0L30.0 96.0Q30.0 100.0 26.0 100.0L4.0 100.0Q0.0 100.0 0.0 96.0L0.0 4.0Z" stroke="#323232" stroke-width="2.0" stroke-dasharray="none" opacity="1.0" fill="#ffffff"/></g><g id="ProcessOnG1033"><path id="ProcessOnPath1034" d="M530.0 424.0L629.0 424.0L629.0 422.0L712.7639320225002 422.0" stroke="#323232" stroke-width="2.0" stroke-dasharray="none" fill="none" marker-end="url(#ProcessOnMarker1035)"/><g id="ProcessOnG1037" transform="matrix(1.0,0.0,0.0,1.0,622.3819660112501,415.875)"><path id="ProcessOnPath1038" d="M0 0H91.0V16.25H0Z" fill="#fff" transform="matrix(1.0,0.0,0.0,1.0,-45.5,0.0)"/><text id="ProcessOnText1039" fill="#000000" font-weight="normal" font-style="normal" text-decoration="none" font-family="微软雅黑" text-anchor="middle" font-size="13" x="0.0" y="13.325">请求角色的权限</text></g></g><g id="ProcessOnG1040"><path id="ProcessOnPath1041" d="M728.0 457.0L629.0 457.0L629.0 459.0L545.2360679774998 459.0" stroke="#323232" stroke-width="2.0" stroke-dasharray="none" fill="none" marker-end="url(#ProcessOnMarker1042)"/><g id="ProcessOnG1044" transform="matrix(1.0,0.0,0.0,1.0,635.6180339887499,448.875)"><path id="ProcessOnPath1045" d="M0 0H39.0V16.25H0Z" fill="#fff" transform="matrix(1.0,0.0,0.0,1.0,-19.5,0.0)"/><text id="ProcessOnText1046" fill="#000000" font-weight="normal" font-style="normal" text-decoration="none" font-family="微软雅黑" text-anchor="middle" font-size="13" x="0.0" y="13.325">权限集</text></g></g><g id="ProcessOnG1047"><path id="ProcessOnPath1048" d="M501.0 478.0L400.5 478.0L400.5 478.0L315.2360679774998 478.0" stroke="#323232" stroke-width="2.0" stroke-dasharray="none" fill="none" marker-end="url(#ProcessOnMarker1049)"/><g id="ProcessOnG1051" transform="matrix(1.0,0.0,0.0,1.0,408.11803398874986,469.875)"><path id="ProcessOnPath1052" d="M0 0H58.0V16.25H0Z" fill="#fff" transform="matrix(1.0,0.0,0.0,1.0,-29.0,0.0)"/><text id="ProcessOnText1053" fill="#000000" font-weight="normal" font-style="normal" text-decoration="none" font-family="微软雅黑" text-anchor="middle" font-size="13" x="0.0" y="13.325">许可/驳回</text></g></g></g></g></svg>